<?xml version="1.0" standalone="no"?>
<!DOCTYPE svg PUBLIC "-//W3C//DTD SVG 20010904//EN"
 "http://www.w3.org/TR/2001/REC-SVG-20010904/DTD/svg10.dtd">
<svg version="1.0" xmlns="http://www.w3.org/2000/svg"
 width="1000.000000pt" height="1000.000000pt" viewBox="0 0 1000.000000 1000.000000"
 preserveAspectRatio="xMidYMid meet">
<metadata>
Created by potrace 1.11, written by Peter Selinger 2001-2013
</metadata>
<g transform="translate(0.000000,1000.000000) scale(0.100000,-0.100000)"
fill="#000000" stroke="none">
<path d="M4010 9174 c-296 -25 -521 -61 -759 -120 -1293 -322 -2376 -1272
-2865 -2513 -140 -355 -226 -700 -273 -1099 -24 -205 -24 -679 0 -884 110
-930 485 -1749 1101 -2407 692 -739 1579 -1184 2601 -1307 210 -26 697 -26
910 -1 975 116 1831 529 2510 1211 669 673 1072 1513 1192 2486 25 207 25 716
0 920 -122 976 -523 1813 -1192 2486 -677 680 -1541 1098 -2505 1210 -127 15
-616 27 -720 18z"/>
<path d="M9275 5559 c-215 -27 -392 -171 -467 -381 -18 -51 -22 -84 -22 -178
0 -94 4 -127 22 -178 51 -144 158 -265 287 -327 91 -43 159 -58 259 -57 245 2
449 157 532 402 14 40 19 84 19 160 0 160 -51 286 -160 396 -125 124 -298 185
-470 163z"/>
</g>
</svg>
